<svg width="2500" height="1250" xmlns="http://www.w3.org/2000/svg" xmlns:xlink="http://www.w3.org/1999/xlink" xml:space="preserve" overflow="hidden"><g><rect x="0" y="0" width="2500" height="1250" fill="#D86ECC"/><path d="M1130.94 388 1383.26 388 1383.26 456.392 1193.85 456.392 1176.94 576.923 1181 578.278C1190.92 570.603 1202.42 564.057 1215.5 558.64 1228.58 553.223 1244.59 550.514 1263.53 550.514 1282.92 550.514 1301.52 554.239 1319.34 561.687 1337.15 569.136 1352.82 579.632 1366.35 593.175 1379.88 606.717 1390.71 622.969 1398.82 641.929 1406.94 660.889 1411 681.88 1411 704.903 1411 727.475 1406.94 748.353 1398.82 767.539 1390.71 786.725 1379.43 803.314 1365 817.309 1350.57 831.303 1333.54 842.25 1313.93 850.15 1294.31 858.05 1272.77 862 1249.32 862 1233.09 862 1216.63 859.517 1199.94 854.552 1183.25 849.586 1167.58 842.025 1152.93 831.867 1138.27 821.71 1125.3 808.732 1114.03 792.932 1102.75 777.132 1094.41 758.398 1089 736.729L1156.65 709.643C1162.51 733.569 1173.22 753.093 1188.78 768.216 1204.34 783.339 1224.29 790.9 1248.65 790.9 1260.82 790.9 1272.32 788.756 1283.15 784.468 1293.97 780.179 1303.22 774.31 1310.88 766.862 1318.55 759.413 1324.64 750.498 1329.15 740.114 1333.66 729.732 1335.91 718.221 1335.91 705.58 1335.91 692.94 1333.77 681.316 1329.49 670.707 1325.2 660.099 1319.23 650.957 1311.56 643.283 1303.89 635.609 1294.65 629.628 1283.82 625.339 1273 621.05 1261.27 618.906 1248.65 618.906 1233.76 618.906 1220.24 622.179 1208.06 628.725 1195.88 635.271 1185.74 643.735 1177.62 654.117L1103.21 620.937 1130.94 388Z" fill="#A02B93" fill-rule="evenodd"/></g></svg>