<?xml version="1.0" encoding="UTF-8" standalone="no"?>
<!-- Created with Inkscape (http://www.inkscape.org/) -->

<svg
   width="1295"
   height="256"
   viewBox="0 0 12.95 2.56"
   version="1.1"
   id="svg1"
   inkscape:version="1.4 (86a8ad7, 2024-10-11)"
   sodipodi:docname="logotype.svg"
   xmlns:inkscape="http://www.inkscape.org/namespaces/inkscape"
   xmlns:sodipodi="http://sodipodi.sourceforge.net/DTD/sodipodi-0.dtd"
   xmlns="http://www.w3.org/2000/svg"
   xmlns:svg="http://www.w3.org/2000/svg">
  <sodipodi:namedview
     id="namedview1"
     pagecolor="#ffffff"
     bordercolor="#999999"
     borderopacity="1"
     inkscape:showpageshadow="2"
     inkscape:pageopacity="0"
     inkscape:pagecheckerboard="true"
     inkscape:deskcolor="#d1d1d1"
     inkscape:document-units="px"
     showgrid="true"
     inkscape:lockguides="false"
     inkscape:zoom="0.5"
     inkscape:cx="488"
     inkscape:cy="257"
     inkscape:window-width="1920"
     inkscape:window-height="1009"
     inkscape:window-x="-8"
     inkscape:window-y="-8"
     inkscape:window-maximized="1"
     inkscape:current-layer="layer1">
    <inkscape:grid
       id="grid1"
       units="px"
       originx="0"
       originy="0"
       spacingx="0.01"
       spacingy="0.01"
       empcolor="#0099e5"
       empopacity="0.30196078"
       color="#0099e5"
       opacity="0.14901961"
       empspacing="5"
       dotted="false"
       gridanglex="30"
       gridanglez="30"
       visible="true" />
  </sodipodi:namedview>
  <defs
     id="defs1">
    <inkscape:path-effect
       effect="fillet_chamfer"
       id="path-effect6"
       is_visible="true"
       lpeversion="1"
       nodesatellites_param="F,0,0,1,0,0,0,1 @ F,0,0,1,0,0,0,1 @ F,0,0,1,0,0,0,1"
       radius="0"
       unit="px"
       method="auto"
       mode="F"
       chamfer_steps="1"
       flexible="false"
       use_knot_distance="true"
       apply_no_radius="true"
       apply_with_radius="true"
       only_selected="false"
       hide_knots="false" />
    <inkscape:path-effect
       effect="fillet_chamfer"
       id="path-effect5"
       is_visible="true"
       lpeversion="1"
       nodesatellites_param="F,0,0,1,0,0,0,1 @ F,0,0,1,0,0,0,1 @ F,0,0,1,0,0,0,1 @ F,0,0,1,0,0,0,1"
       radius="0"
       unit="px"
       method="auto"
       mode="F"
       chamfer_steps="1"
       flexible="false"
       use_knot_distance="true"
       apply_no_radius="true"
       apply_with_radius="true"
       only_selected="false"
       hide_knots="false" />
    <inkscape:path-effect
       effect="fillet_chamfer"
       id="path-effect4"
       is_visible="true"
       lpeversion="1"
       nodesatellites_param="F,0,0,1,0,0,0,1 @ F,0,0,1,0,0,0,1 @ F,0,0,1,0,0,0,1 @ F,0,0,1,0,0,0,1"
       radius="0"
       unit="px"
       method="auto"
       mode="F"
       chamfer_steps="1"
       flexible="false"
       use_knot_distance="true"
       apply_no_radius="true"
       apply_with_radius="true"
       only_selected="false"
       hide_knots="false" />
    <inkscape:path-effect
       effect="fillet_chamfer"
       id="path-effect3"
       is_visible="true"
       lpeversion="1"
       nodesatellites_param="F,0,0,1,0,0,0,1 @ F,0,0,1,0,0,0,1 @ F,0,0,1,0,0,0,1 @ F,0,0,1,0,0,0,1 @ F,0,0,1,0,0,0,1 @ F,0,0,1,0,0,0,1 @ F,0,0,1,0,0,0,1 @ F,0,0,1,0,0,0,1"
       radius="0"
       unit="px"
       method="auto"
       mode="F"
       chamfer_steps="1"
       flexible="false"
       use_knot_distance="true"
       apply_no_radius="true"
       apply_with_radius="true"
       only_selected="false"
       hide_knots="false" />
    <inkscape:path-effect
       effect="fillet_chamfer"
       id="path-effect2"
       is_visible="true"
       lpeversion="1"
       nodesatellites_param="F,0,0,1,0,0,0,1 @ F,0,0,1,0,0,0,1 @ F,0,0,1,0,0,0,1 @ F,0,0,1,0,0,0,1"
       radius="0"
       unit="px"
       method="auto"
       mode="F"
       chamfer_steps="1"
       flexible="false"
       use_knot_distance="true"
       apply_no_radius="true"
       apply_with_radius="true"
       only_selected="false"
       hide_knots="false" />
  </defs>
  <g
     inkscape:label="Layer 1"
     inkscape:groupmode="layer"
     id="layer1">
    <path
       id="path1"
       style="fill:#c62edc;fill-opacity:1;stroke-width:0.32;stroke-linecap:round;stroke-linejoin:round"
       d="M 1.84,0 A 0.72,0.72 0 0 0 1.12,0.72 V 0.8 H 1.44 V 0.72 a 0.39999999,0.39999999 0 0 1 0.4,-0.4 0.39999999,0.39999999 0 0 1 0.4,0.4 0.39999999,0.39999999 0 0 1 -0.4,0.4 H 1.76 1.44 1.12 0.8 0.72 A 0.72,0.72 0 0 0 0,1.84 0.72,0.72 0 0 0 0.72,2.56 0.72,0.72 0 0 0 1.44,1.84 V 1.76 H 1.12 v 0.08 a 0.39999999,0.39999999 0 0 1 -0.4,0.4 0.39999999,0.39999999 0 0 1 -0.4,-0.4 0.39999999,0.39999999 0 0 1 0.4,-0.4 H 0.8 1.12 1.44 1.76 1.84 A 0.72,0.72 0 0 0 2.56,0.72 0.72,0.72 0 0 0 1.84,0 Z" />
    <path
       style="font-weight:500;font-size:1.90872px;font-family:'Wanted Sans Variable';-inkscape-font-specification:'Wanted Sans Variable Medium';letter-spacing:0px;fill:#8f7895;stroke-width:0.15915"
       d="M 2.9499999,0.59899836 H 3.1514237 V 1.9492832 H 2.9499999 Z M 3.1476936,1.7609148 H 3.7696825 V 1.9492832 H 3.1476936 Z M 3.7516552,0.98692549 H 3.9577413 L 4.3466011,1.9492832 H 4.1563676 Z M 4.1563676,1.9492832 4.2440241,1.7180189 h 0.029841 l -0.01492,0.00839 0.275092,-0.73948141 H 4.7373258 L 4.205791,2.3521306 H 3.9997047 Z M 4.8930562,0.98692549 H 5.0851547 V 1.9492832 H 4.8930562 Z M 5.0543816,1.306779 V 1.1333306 h 0.060614 L 5.0543816,1.306779 q 0,-0.096049 0.039166,-0.1753134 0.039166,-0.079264 0.1044419,-0.1249573 0.066209,-0.0456933 0.1464052,-0.0456933 0.050356,0 0.097914,0.0186503 V 1.1669013 q -0.053154,-0.016785 -0.1072395,-0.016785 -0.079263,0 -0.135215,0.039166 -0.055019,0.038234 -0.084859,0.1137672 -0.029841,0.074601 -0.029841,0.1809083 z m 1.3279045,0.1613254 q 0,0.1631904 -0.044761,0.2769576 -0.043829,0.113767 -0.1286874,0.1725157 -0.083926,0.057816 -0.2032887,0.057816 -0.1296199,0 -0.2340618,-0.066209 Q 5.6679778,1.8429766 5.6082968,1.7264116 5.5495486,1.609847 5.5495486,1.4681044 q 0,-0.1436077 0.058748,-0.2592398 0.059681,-0.1156322 0.1631905,-0.1818408 0.1044419,-0.0662089 0.2340618,-0.0662089 0.1193621,0 0.2032887,0.0587487 0.084859,0.057816 0.1286874,0.171583 0.044761,0.1137672 0.044761,0.2769577 L 6.2871693,1.1314656 H 6.4046664 V 1.804743 H 6.2871693 Z M 6.0353897,1.7954179 q 0.083926,0 0.1492027,-0.041964 0.066209,-0.041964 0.1025769,-0.1156321 0.037301,-0.074601 0.037301,-0.1697181 0,-0.095117 -0.037301,-0.1687857 -0.036369,-0.074601 -0.1025769,-0.1165642 -0.065276,-0.041964 -0.1492027,-0.041964 -0.084859,0 -0.1501353,0.041964 -0.065276,0.041964 -0.1025769,0.1165646 -0.037301,0.073668 -0.037301,0.1687857 0,0.093251 0.037301,0.1687856 0.037301,0.074601 0.1025769,0.1165646 0.065277,0.041964 0.1501353,0.041963 z M 6.3170099,1.9492832 V 1.7553197 L 6.3580406,1.4681044 6.3170099,1.2125947 V 0.98692549 h 0.193031 V 1.9492832 Z M 7.2318093,0.59899836 H 7.4332331 V 1.9492832 H 7.2318093 Z M 7.4295031,1.7609148 H 8.0934552 V 1.9492832 H 7.4295031 Z m 0,-0.6052038 H 8.026314 V 1.3366194 H 7.4295031 Z m 0,-0.55671264 H 8.0785349 V 0.78736682 H 7.4295031 Z M 8.3032714,0.98692549 H 8.4953698 V 1.9492832 H 8.3032714 Z M 8.937383,1.3963005 q 0,-0.1240247 -0.05222,-0.1893009 -0.051289,-0.066208 -0.1473377,-0.066208 -0.065276,0 -0.1202948,0.032638 -0.055018,0.031706 -0.088589,0.096982 -0.033571,0.064343 -0.033571,0.1603929 L 8.4711244,1.2713432 V 1.1277356 h 0.054086 l -0.054086,0.1436076 q 0,-0.091386 0.040099,-0.1613255 0.041031,-0.070871 0.1137671,-0.110037 0.073668,-0.0391657 0.1678531,-0.0391657 0.1072395,0 0.1827733,0.0484909 0.075533,0.048491 0.1146997,0.1398776 0.039166,0.090454 0.039166,0.2172766 V 1.9492832 H 8.937383 Z m 1.220665,0.056884 q 0,0.1575954 -0.04475,0.2685649 -0.04383,0.1109696 -0.1286877,0.1678532 -0.083927,0.05595 -0.203289,0.05595 -0.1296199,0 -0.2340619,-0.064343 -0.1035143,-0.064344 -0.1631955,-0.1771782 -0.058748,-0.1128344 -0.058748,-0.250847 0,-0.1380125 0.058748,-0.2508472 0.059682,-0.1128345 0.1631905,-0.1771782 0.104442,-0.0643438 0.2340619,-0.0643438 0.1193622,0 0.203289,0.0568836 0.084858,0.055951 0.1286877,0.1659881 0.04475,0.1100369 0.04475,0.2694974 l -0.09511,-0.3273136 h 0.119362 V 1.7804976 H 10.062932 Z M 9.8111518,1.7674424 q 0.083926,0 0.1492028,-0.040099 0.066207,-0.040099 0.1025774,-0.1119019 0.0373,-0.071803 0.0373,-0.162258 0,-0.092319 -0.0373,-0.1631906 -0.03637,-0.07087 -0.1025774,-0.1109691 -0.065277,-0.040099 -0.1492028,-0.040099 -0.084859,0 -0.1501353,0.040098 -0.065277,0.040099 -0.1025768,0.111902 -0.037301,0.071803 -0.037301,0.1622581 0,0.090454 0.037301,0.162258 0.037301,0.071803 0.1025768,0.1119019 0.065276,0.040099 0.1501353,0.040099 z m -0.021448,0.6107987 q -0.1426751,0 -0.2508471,-0.058748 Q 9.4306847,2.2616765 9.3448932,2.1432468 L 9.4894334,2.0360074 q 0.062478,0.087656 0.1324174,0.1268222 0.070871,0.039166 0.164123,0.039166 0.1492028,0 0.2275342,-0.090454 0.07926,-0.089521 0.07926,-0.2592397 V 1.723614 l 0.0429,-0.2555096 -0.04289,-0.2872153 V 0.98692549 h 0.192099 V 1.8523014 q 0,0.1631904 -0.05968,0.2816201 -0.05968,0.1184298 -0.171584,0.1809084 -0.1109693,0.063412 -0.2639021,0.063412 z M 10.527325,0.98692549 h 0.192098 V 1.9492832 h -0.192098 z m 0.09605,-0.18184085 q -0.0345,0 -0.06248,-0.0158528 -0.02704,-0.0158528 -0.04383,-0.0428957 -0.01585,-0.0279755 -0.01585,-0.0624786 0,-0.0345031 0.01585,-0.0624786 0.01679,-0.0279755 0.04383,-0.0428957 0.02798,-0.0158528 0.06248,-0.0158528 0.0345,0 0.06247,0.0158528 0.02891,0.0149203 0.04383,0.0428957 0.01585,0.0279755 0.01585,0.0624786 0,0.0345031 -0.01585,0.0624786 -0.01492,0.027043 -0.04383,0.0428957 -0.02798,0.0158528 -0.06247,0.0158528 z m 0.338505,0.18184085 h 0.192098 V 1.9492832 H 10.96188 Z m 0.634106,0.40937501 q 0,-0.1240247 -0.05222,-0.1893009 -0.05129,-0.066208 -0.147338,-0.066208 -0.06528,0 -0.120294,0.032638 -0.05502,0.031706 -0.08859,0.096982 -0.03357,0.064343 -0.03357,0.1603929 L 11.129732,1.2713432 V 1.1277356 h 0.05409 l -0.05409,0.1436076 q 0,-0.091386 0.0401,-0.1613255 0.04103,-0.070871 0.113767,-0.110037 0.07367,-0.0391657 0.167853,-0.0391657 0.10724,0 0.182773,0.0484909 0.07553,0.048491 0.1147,0.1398776 0.03916,0.090454 0.03916,0.2172766 v 0.5828232 h -0.192099 z m 0.897082,0.5790932 q -0.145473,0 -0.262038,-0.065276 -0.115632,-0.066208 -0.181841,-0.1827735 -0.06528,-0.1165645 -0.06528,-0.2592396 0,-0.1445402 0.06435,-0.2601723 0.06435,-0.1156321 0.175314,-0.1809083 0.111902,-0.0662089 0.250848,-0.0662089 0.138945,0 0.247117,0.0662089 Q 12.829709,1.0923 12.88939,1.2079323 12.95,1.3235644 12.95,1.4681046 q 0,0.025178 -0.0028,0.064343 H 12.120997 V 1.3636624 h 0.639707 l -0.01492,0.023313 q 0,-0.071803 -0.0345,-0.1296199 -0.0345,-0.058749 -0.09605,-0.091386 -0.06155,-0.033571 -0.14081,-0.033571 -0.08486,0 -0.152933,0.041031 -0.06714,0.041031 -0.105376,0.113767 -0.0373,0.072736 -0.0373,0.1669206 v 0.025178 q 0,0.095116 0.04103,0.1697181 0.04103,0.073668 0.112836,0.1146996 0.07273,0.040098 0.163191,0.040098 0.09045,0 0.153864,-0.039166 0.06435,-0.040099 0.09885,-0.1109695 l 0.168785,0.068073 q -0.05688,0.1184297 -0.16692,0.1865034 -0.109106,0.067141 -0.257375,0.067141 z"
       id="text1"
       aria-label="Lyra Engine" />
  </g>
</svg>
