<?xml version="1.0" encoding="UTF-8" standalone="no"?>
<!-- Created with Inkscape (http://www.inkscape.org/) -->

<svg
   width="1000"
   height="470"
   viewBox="0 0 10 4.7"
   version="1.1"
   id="svg1"
   inkscape:version="1.4 (86a8ad7, 2024-10-11)"
   sodipodi:docname="logo-vertical.svg"
   xmlns:inkscape="http://www.inkscape.org/namespaces/inkscape"
   xmlns:sodipodi="http://sodipodi.sourceforge.net/DTD/sodipodi-0.dtd"
   xmlns="http://www.w3.org/2000/svg"
   xmlns:svg="http://www.w3.org/2000/svg">
  <sodipodi:namedview
     id="namedview1"
     pagecolor="#ffffff"
     bordercolor="#999999"
     borderopacity="1"
     inkscape:showpageshadow="2"
     inkscape:pageopacity="0"
     inkscape:pagecheckerboard="true"
     inkscape:deskcolor="#d1d1d1"
     inkscape:document-units="px"
     showgrid="true"
     inkscape:lockguides="false"
     inkscape:zoom="0.70710678"
     inkscape:cx="502.04581"
     inkscape:cy="248.19448"
     inkscape:window-width="1920"
     inkscape:window-height="1009"
     inkscape:window-x="-8"
     inkscape:window-y="-8"
     inkscape:window-maximized="1"
     inkscape:current-layer="layer1">
    <inkscape:grid
       id="grid1"
       units="px"
       originx="-2.9499998"
       originy="2.3199999"
       spacingx="0.01"
       spacingy="0.01"
       empcolor="#0099e5"
       empopacity="0.30196078"
       color="#0099e5"
       opacity="0.14901961"
       empspacing="5"
       dotted="false"
       gridanglex="30"
       gridanglez="30"
       visible="true" />
  </sodipodi:namedview>
  <defs
     id="defs1">
    <inkscape:path-effect
       effect="fillet_chamfer"
       id="path-effect6"
       is_visible="true"
       lpeversion="1"
       nodesatellites_param="F,0,0,1,0,0,0,1 @ F,0,0,1,0,0,0,1 @ F,0,0,1,0,0,0,1"
       radius="0"
       unit="px"
       method="auto"
       mode="F"
       chamfer_steps="1"
       flexible="false"
       use_knot_distance="true"
       apply_no_radius="true"
       apply_with_radius="true"
       only_selected="false"
       hide_knots="false" />
    <inkscape:path-effect
       effect="fillet_chamfer"
       id="path-effect5"
       is_visible="true"
       lpeversion="1"
       nodesatellites_param="F,0,0,1,0,0,0,1 @ F,0,0,1,0,0,0,1 @ F,0,0,1,0,0,0,1 @ F,0,0,1,0,0,0,1"
       radius="0"
       unit="px"
       method="auto"
       mode="F"
       chamfer_steps="1"
       flexible="false"
       use_knot_distance="true"
       apply_no_radius="true"
       apply_with_radius="true"
       only_selected="false"
       hide_knots="false" />
    <inkscape:path-effect
       effect="fillet_chamfer"
       id="path-effect4"
       is_visible="true"
       lpeversion="1"
       nodesatellites_param="F,0,0,1,0,0,0,1 @ F,0,0,1,0,0,0,1 @ F,0,0,1,0,0,0,1 @ F,0,0,1,0,0,0,1"
       radius="0"
       unit="px"
       method="auto"
       mode="F"
       chamfer_steps="1"
       flexible="false"
       use_knot_distance="true"
       apply_no_radius="true"
       apply_with_radius="true"
       only_selected="false"
       hide_knots="false" />
    <inkscape:path-effect
       effect="fillet_chamfer"
       id="path-effect3"
       is_visible="true"
       lpeversion="1"
       nodesatellites_param="F,0,0,1,0,0,0,1 @ F,0,0,1,0,0,0,1 @ F,0,0,1,0,0,0,1 @ F,0,0,1,0,0,0,1 @ F,0,0,1,0,0,0,1 @ F,0,0,1,0,0,0,1 @ F,0,0,1,0,0,0,1 @ F,0,0,1,0,0,0,1"
       radius="0"
       unit="px"
       method="auto"
       mode="F"
       chamfer_steps="1"
       flexible="false"
       use_knot_distance="true"
       apply_no_radius="true"
       apply_with_radius="true"
       only_selected="false"
       hide_knots="false" />
    <inkscape:path-effect
       effect="fillet_chamfer"
       id="path-effect2"
       is_visible="true"
       lpeversion="1"
       nodesatellites_param="F,0,0,1,0,0,0,1 @ F,0,0,1,0,0,0,1 @ F,0,0,1,0,0,0,1 @ F,0,0,1,0,0,0,1"
       radius="0"
       unit="px"
       method="auto"
       mode="F"
       chamfer_steps="1"
       flexible="false"
       use_knot_distance="true"
       apply_no_radius="true"
       apply_with_radius="true"
       only_selected="false"
       hide_knots="false" />
  </defs>
  <g
     inkscape:label="Layer 1"
     inkscape:groupmode="layer"
     id="layer1"
     transform="translate(-2.9499999,2.32)">
    <path
       id="path1"
       style="fill:#c62edc;fill-opacity:1;stroke-width:0.32;stroke-linecap:round;stroke-linejoin:round"
       d="M 8.51,-2.32 A 0.72,0.72 0 0 0 7.79,-1.6 v 0.08 H 8.11 V -1.6 a 0.39999999,0.39999999 0 0 1 0.4,-0.4 0.39999999,0.39999999 0 0 1 0.4,0.4 0.39999999,0.39999999 0 0 1 -0.4,0.4 H 8.43 8.11 7.79 7.47 7.39 a 0.72,0.72 0 0 0 -0.72,0.72000008 0.72,0.72 0 0 0 0.72,0.72 0.72,0.72 0 0 0 0.72,-0.72 v -0.08 H 7.79 v 0.08 a 0.39999999,0.39999999 0 0 1 -0.4000001,0.4 0.39999999,0.39999999 0 0 1 -0.4,-0.4 0.39999999,0.39999999 0 0 1 0.4,-0.4 h 0.08 H 7.79 h 0.32 0.3199999 0.08 A 0.72,0.72 0 0 0 9.23,-1.6 0.72,0.72 0 0 0 8.51,-2.32 Z" />
    <path
       style="font-weight:500;font-size:1.90872px;font-family:'Wanted Sans Variable';-inkscape-font-specification:'Wanted Sans Variable Medium';letter-spacing:0px;fill:#8f7895;stroke-width:0.15915"
       d="M 2.9499999,0.60075644 H 3.1514237 V 1.9510413 H 2.9499999 Z M 3.1476936,1.7626729 H 3.7696825 V 1.9510413 H 3.1476936 Z M 3.7516552,0.98868354 H 3.9577413 L 4.3466011,1.9510413 H 4.1563676 Z M 4.1563676,1.9510413 4.2440236,1.719777 h 0.029841 l -0.01492,0.00839 0.275092,-0.73948146 H 4.7373258 L 4.205791,2.3538887 H 3.9997047 Z M 4.8930562,0.98868354 H 5.0851547 V 1.9510413 H 4.8930562 Z M 5.0543816,1.3085371 V 1.1350887 h 0.060614 l -0.060614,0.1734484 q 0,-0.096049 0.039166,-0.1753134 0.039166,-0.079264 0.1044419,-0.1249573 0.066209,-0.045693 0.1464052,-0.045693 0.050356,0 0.097914,0.01865 V 1.1686594 q -0.053154,-0.016785 -0.1072395,-0.016785 -0.079263,0 -0.135215,0.039166 -0.055019,0.038234 -0.084859,0.1137672 -0.029841,0.074601 -0.029841,0.1809083 z m 1.3279045,0.1613254 q 0,0.1631904 -0.044761,0.2769576 -0.043829,0.113767 -0.1286874,0.1725157 -0.083926,0.057816 -0.2032887,0.057816 -0.1296199,0 -0.2340618,-0.066209 Q 5.6679778,1.8447347 5.6082968,1.7281697 5.5495488,1.6116051 5.5495488,1.4698625 q 0,-0.1436077 0.058748,-0.2592398 0.059681,-0.1156322 0.1631905,-0.1818408 0.1044419,-0.066209 0.2340618,-0.066209 0.1193621,0 0.2032887,0.058749 0.084859,0.057816 0.1286874,0.171583 0.044761,0.1137672 0.044761,0.2769577 L 6.2871692,1.1332239 H 6.4046663 V 1.8065013 H 6.2871693 Z M 6.0353897,1.797176 q 0.083926,0 0.1492027,-0.041964 0.066209,-0.041964 0.1025769,-0.1156321 0.037301,-0.074601 0.037301,-0.1697181 0,-0.095117 -0.037301,-0.1687857 -0.036369,-0.074601 -0.1025769,-0.1165642 -0.065276,-0.041964 -0.1492027,-0.041964 -0.084859,0 -0.1501353,0.041964 -0.065276,0.041964 -0.1025769,0.1165646 -0.037301,0.073668 -0.037301,0.1687857 0,0.093251 0.037301,0.1687856 0.037301,0.074601 0.1025769,0.1165646 0.065277,0.041964 0.1501353,0.041964 z M 6.3170099,1.9510413 V 1.7570778 L 6.3580406,1.4698625 6.3170099,1.2143528 V 0.98868354 h 0.193031 V 1.9510413 Z M 7.2318093,0.60075644 H 7.4332331 V 1.9510413 H 7.2318093 Z M 7.4295031,1.7626729 H 8.0934552 V 1.9510413 H 7.4295031 Z m 0,-0.6052038 H 8.026314 V 1.3383775 H 7.4295031 Z m 0,-0.55671266 h 0.6490318 v 0.1883685 H 7.4295031 Z m 0.8737683,0.3879271 H 8.4953698 V 1.9510413 H 8.3032714 Z M 8.937383,1.3980586 q 0,-0.1240247 -0.05222,-0.1893009 -0.051289,-0.066208 -0.1473377,-0.066208 -0.065276,0 -0.1202948,0.032638 -0.055018,0.031706 -0.088589,0.096982 -0.033571,0.064343 -0.033571,0.1603929 L 8.4711245,1.2731013 V 1.1294937 h 0.054086 l -0.054086,0.1436076 q 0,-0.091386 0.040099,-0.1613255 0.041031,-0.070871 0.1137671,-0.110037 0.073668,-0.039166 0.1678531,-0.039166 0.1072395,0 0.1827733,0.048491 0.075533,0.048491 0.1146997,0.1398776 0.039166,0.090454 0.039166,0.2172766 V 1.9510411 H 8.937383 Z m 1.220665,0.056884 q 0,0.1575954 -0.04475,0.2685649 -0.04383,0.1109696 -0.1286877,0.1678532 -0.083927,0.05595 -0.203289,0.05595 -0.1296199,0 -0.2340619,-0.064343 -0.1035143,-0.064344 -0.1631955,-0.1771782 -0.058748,-0.1128344 -0.058748,-0.250847 0,-0.1380125 0.058748,-0.2508472 0.059682,-0.1128345 0.1631905,-0.1771782 0.104442,-0.064344 0.2340619,-0.064344 0.1193622,0 0.203289,0.056884 0.084858,0.055951 0.1286877,0.1659881 0.04475,0.1100369 0.04475,0.2694974 L 10.062933,1.127629 h 0.119362 V 1.7822559 H 10.062932 Z M 9.8111518,1.7692005 q 0.083926,0 0.1492028,-0.040099 0.066207,-0.040099 0.1025774,-0.1119019 0.0373,-0.071803 0.0373,-0.162258 0,-0.092319 -0.0373,-0.1631906 -0.03637,-0.07087 -0.1025774,-0.1109691 -0.065277,-0.040099 -0.1492028,-0.040099 -0.084859,0 -0.1501353,0.040098 -0.065277,0.040099 -0.1025768,0.111902 -0.037301,0.071803 -0.037301,0.1622581 0,0.090454 0.037301,0.162258 0.037301,0.071803 0.1025768,0.1119019 0.065276,0.040099 0.1501353,0.0401 z m -0.021448,0.6107987 q -0.1426751,0 -0.2508471,-0.058748 Q 9.4306847,2.2634346 9.3448932,2.1450049 L 9.4894334,2.0377655 q 0.062478,0.087656 0.1324174,0.1268222 0.070871,0.039166 0.164123,0.039166 0.1492028,0 0.2275342,-0.090454 0.07926,-0.089521 0.07926,-0.2592397 V 1.7253721 l 0.0429,-0.2555096 -0.04289,-0.2872153 V 0.98868354 h 0.192099 V 1.8540595 q 0,0.1631904 -0.05968,0.2816201 Q 10.165517,2.2541094 10.053613,2.316588 9.9426437,2.38 9.7897109,2.38 Z M 10.527325,0.98868354 h 0.192098 V 1.9510413 h -0.192098 z m 0.09605,-0.1818408 q -0.0345,0 -0.06248,-0.015853 -0.02704,-0.015853 -0.04383,-0.042896 -0.01585,-0.027976 -0.01585,-0.062479 0,-0.034503 0.01585,-0.062479 0.01679,-0.027975 0.04383,-0.042896 0.02798,-0.015853 0.06248,-0.015853 0.0345,0 0.06247,0.015853 0.02891,0.01492 0.04383,0.042896 0.01585,0.027976 0.01585,0.062479 0,0.034503 -0.01585,0.062479 -0.01492,0.027043 -0.04383,0.042896 -0.02798,0.015853 -0.06247,0.015853 z m 0.338505,0.1818408 h 0.192098 V 1.9510413 H 10.96188 Z m 0.634106,0.40937506 q 0,-0.1240247 -0.05222,-0.1893009 -0.05129,-0.066208 -0.147338,-0.066208 -0.06528,0 -0.120294,0.032638 -0.05502,0.031706 -0.08859,0.096982 -0.03357,0.064343 -0.03357,0.1603929 L 11.129734,1.2731013 V 1.1294937 h 0.05409 l -0.05409,0.1436076 q 0,-0.091386 0.0401,-0.1613255 0.04103,-0.070871 0.113767,-0.110037 0.07367,-0.039166 0.167853,-0.039166 0.10724,0 0.182773,0.048491 0.07553,0.048491 0.1147,0.1398776 0.03916,0.090454 0.03916,0.2172766 v 0.5828232 h -0.192099 z m 0.897082,0.5790932 q -0.145473,0 -0.262038,-0.065276 -0.115632,-0.066208 -0.181841,-0.1827735 -0.06528,-0.1165645 -0.06528,-0.2592396 0,-0.1445402 0.06435,-0.2601723 0.06435,-0.1156321 0.175314,-0.1809083 0.111902,-0.066209 0.250848,-0.066209 0.138945,0 0.247117,0.066209 0.108171,0.065276 0.167852,0.1809083 0.06061,0.1156321 0.06061,0.2601723 0,0.025178 -0.0028,0.064343 H 12.120997 V 1.3654205 h 0.639707 l -0.01492,0.023313 q 0,-0.071803 -0.0345,-0.1296199 -0.0345,-0.058749 -0.09605,-0.091386 -0.06155,-0.033571 -0.14081,-0.033571 -0.08486,0 -0.152933,0.041031 -0.06714,0.041031 -0.105376,0.113767 -0.0373,0.072736 -0.0373,0.1669206 v 0.025178 q 0,0.095116 0.04103,0.1697181 0.04103,0.073668 0.112836,0.1146996 0.07273,0.040098 0.163191,0.040098 0.09045,0 0.153864,-0.039166 0.06435,-0.040099 0.09885,-0.1109695 l 0.168785,0.068073 q -0.05688,0.1184297 -0.16692,0.1865034 -0.109106,0.067141 -0.257375,0.067141 z"
       id="text1"
       aria-label="Lyra Engine" />
  </g>
</svg>
