<?xml version="1.0" encoding="UTF-8" standalone="no"?>
<!-- Created with Inkscape (http://www.inkscape.org/) -->

<svg
   width="2560"
   height="511.99997"
   viewBox="0 0 677.3333 135.46666"
   version="1.1"
   id="svg1"
   inkscape:version="1.4 (86a8ad7, 2024-10-11)"
   sodipodi:docname="logo.svg"
   xmlns:inkscape="http://www.inkscape.org/namespaces/inkscape"
   xmlns:sodipodi="http://sodipodi.sourceforge.net/DTD/sodipodi-0.dtd"
   xmlns="http://www.w3.org/2000/svg"
   xmlns:svg="http://www.w3.org/2000/svg">
  <sodipodi:namedview
     id="namedview1"
     pagecolor="#ffffff"
     bordercolor="#999999"
     borderopacity="1"
     inkscape:showpageshadow="2"
     inkscape:pageopacity="0"
     inkscape:pagecheckerboard="true"
     inkscape:deskcolor="#d1d1d1"
     inkscape:document-units="px"
     showgrid="true"
     inkscape:zoom="0.35355339"
     inkscape:cx="1459.4684"
     inkscape:cy="306.88434"
     inkscape:window-width="1920"
     inkscape:window-height="1009"
     inkscape:window-x="-8"
     inkscape:window-y="-8"
     inkscape:window-maximized="1"
     inkscape:current-layer="layer1">
    <inkscape:grid
       id="grid2"
       units="px"
       originx="0"
       originy="0"
       spacingx="0.26458332"
       spacingy="0.26458334"
       empcolor="#0099e5"
       empopacity="0.30196078"
       color="#0099e5"
       opacity="0.14901961"
       empspacing="5"
       enabled="true"
       visible="true" />
  </sodipodi:namedview>
  <defs
     id="defs1" />
  <g
     inkscape:label="Layer 1"
     inkscape:groupmode="layer"
     id="layer1">
    <rect
       style="fill:#c62edc;fill-opacity:1;stroke:none;stroke-width:0.529167;stroke-linecap:round;stroke-linejoin:round"
       id="rect2"
       width="135.46666"
       height="135.46666"
       x="0"
       y="0"
       rx="16.933332"
       ry="16.933332" />
    <g
       id="g2"
       transform="matrix(0.93750012,0,0,0.93750012,-124.25497,6.2177009)"
       style="stroke-width:1.06667">
      <g
         id="g10"
         style="fill:#ffffff;fill-opacity:0.4;stroke-width:0.1"
         transform="matrix(10.666665,0,0,10.666665,170.92084,31.750001)"
         clip-path="none">
        <path
           style="fill:#ffffff;fill-opacity:0.4;stroke:none;stroke-width:0.0396876;stroke-linecap:round;stroke-linejoin:round"
           d="M 1.5874998,0 H 3.175 L 4.7624999,6.3500002 H 3.175 Z"
           id="path9" />
        <path
           style="fill:#ffffff;fill-opacity:0.4;stroke:none;stroke-width:0.0396876;stroke-linecap:round;stroke-linejoin:round"
           d="M 4.7624998,0 H 6.35 L 7.9374999,6.3500002 H 6.35 Z"
           id="path10" />
        <path
           style="fill:#ffffff;fill-opacity:0.4;stroke:none;stroke-width:0.0396876;stroke-linecap:round;stroke-linejoin:round"
           d="M -1.5875001,0 H 6.0542605e-8 L 1.5875,6.3500002 H 6.0542605e-8 Z"
           id="path8" />
      </g>
      <g
         id="g11"
         style="fill:#ffffff;fill-opacity:1;stroke-width:0.1"
         transform="matrix(10.666665,0,0,10.666665,170.92084,31.750001)"
         clip-path="none">
        <rect
           style="fill:#ffffff;fill-opacity:1;stroke:none;stroke-width:0.044372;stroke-linecap:round;stroke-linejoin:round"
           id="rect7"
           width="1.5875"
           height="7.9375005"
           x="4.7624998"
           y="0"
           transform="matrix(1,0,-0.59999997,0.80000002,0,0)" />
        <rect
           style="fill:#ffffff;fill-opacity:1;stroke:none;stroke-width:0.044372;stroke-linecap:round;stroke-linejoin:round"
           id="rect8"
           width="1.5875"
           height="7.9375005"
           x="1.5874999"
           y="0"
           transform="matrix(1,0,-0.59999997,0.80000002,0,0)" />
        <rect
           style="fill:#ffffff;fill-opacity:1;stroke:none;stroke-width:0.044372;stroke-linecap:round;stroke-linejoin:round"
           id="rect6"
           width="1.5875"
           height="7.9375005"
           x="7.9375"
           y="-2.349972e-15"
           transform="matrix(1,0,-0.59999997,0.80000002,0,0)" />
      </g>
    </g>
    <path
       d="m 157.0345,36.682917 h 8.72602 v 59.0318 h -8.72602 z m 8.56292,16.592502 1.14168,1.141482 h -1.14168 V 53.275419 36.682917 h 2.52804 l 18.59377,46.14917 -0.97863,-0.815337 h 0.97863 v 0.815337 12.882625 h -4.03678 z m 20.79565,42.439298 v -12.88263 -0.815329 h 0.93783 l -0.93783,0.815337 18.59375,-46.149173 h 2.52804 v 16.592502 1.1415 h -1.14166 l 1.14171,-1.141505 -17.12583,42.439298 z m 20.95874,-59.0318 h 8.72602 v 59.0318 h -8.72602 z m 39.38939,60.173295 q -6.07555,0 -11.09101,-2.894484 -4.97461,-2.894495 -7.86972,-7.990496 -2.85429,-5.096008 -2.85429,-11.292682 0,-6.278239 2.85429,-11.333457 2.89505,-5.05521 7.8697,-7.949728 5.01539,-2.894513 11.09102,-2.894513 6.15717,0 11.13179,2.894513 4.97461,2.894484 7.82895,7.949728 2.85426,5.055208 2.85426,11.333457 0,6.196721 -2.85426,11.292682 -2.85427,5.096001 -7.82895,7.990488 -4.97462,2.894482 -11.13178,2.894492 z m 0,-7.868189 q 3.87368,0 6.9319,-1.834566 3.09898,-1.834565 4.77079,-5.055244 1.71257,-3.261395 1.71257,-7.419716 0,-4.158333 -1.71257,-7.37896 -1.67181,-3.261396 -4.77079,-5.095983 -3.0582,-1.834566 -6.9319,-1.834566 -3.87367,0 -6.93187,1.834566 -3.01744,1.834565 -4.77079,5.095983 -1.71259,3.220618 -1.71259,7.37896 0,4.158332 1.71259,7.419716 1.75335,3.220662 4.77079,5.055244 3.0582,1.834566 6.93187,1.834566 z m 30.37796,-35.345694 h 8.39982 v 42.072388 h -8.39982 z M 304.84669,71.5394 q 0,-5.422154 -2.28346,-8.275867 -2.24265,-2.894484 -6.44261,-2.894484 -2.85427,0 -5.26007,1.426876 -2.40581,1.386095 -3.87368,4.239845 -1.4679,2.81297 -1.4679,7.012055 l -1.06019,-6.971321 v -6.278247 h 2.36502 l -2.36502,6.278247 q 0,-3.995222 1.75335,-7.052834 1.79415,-3.098329 4.97463,-4.810601 3.22127,-1.71224 7.33963,-1.71224 4.68918,0 7.99204,2.119931 3.30284,2.119927 5.01539,6.115173 1.71259,3.954487 1.71259,9.498899 v 25.479885 h -8.39972 z m 53.3755,3.139106 q 0,7.134402 -1.95731,12.108038 -1.9165,4.973655 -5.62704,7.542071 -3.66974,2.527571 -8.88911,2.527571 -5.66782,0 -10.23471,-2.894484 -4.52611,-2.894439 -7.13572,-7.99046 -2.56887,-5.096005 -2.56887,-11.292689 0,-6.278238 2.56887,-11.333457 2.60966,-5.055205 7.13573,-7.949721 4.56688,-2.894515 10.23471,-2.894515 5.21931,0 8.88912,2.568374 3.71065,2.527615 5.62704,7.501281 1.9573,4.973671 1.9573,12.108038 l -4.15915,-14.717212 h 5.13776 V 89.39571 h -5.13776 z M 343.0536,88.988023 q 3.66987,0 6.52414,-1.834566 2.89505,-1.834565 4.48534,-5.055244 1.63106,-3.261395 1.63106,-7.419716 0,-4.158333 -1.63106,-7.37896 -1.59029,-3.261396 -4.48534,-5.095962 -2.85427,-1.834564 -6.52414,-1.834564 -3.71066,0 -6.56491,1.834564 -2.85432,1.834566 -4.48534,5.095984 -1.63108,3.220618 -1.63108,7.37896 0,4.076778 1.63108,7.378955 1.63106,3.261396 4.48534,5.096005 2.85427,1.834565 6.56491,1.834544 z m 12.31428,6.726668 v -8.479678 l 1.79414,-12.556486 -1.79414,-11.170389 v -9.865809 h 8.44059 v 42.072388 z m 16.47343,-42.072362 h 25.77029 v 6.808228 H 371.84131 Z M 391.903,96.856212 q -3.99602,0 -6.9319,-1.671498 -2.93583,-1.712231 -4.48534,-4.892133 -1.54944,-3.179884 -1.54944,-7.542071 V 43.205763 h 8.44057 v 39.137103 q 0,3.302218 1.42714,4.851373 1.46796,1.549121 4.52611,1.549121 2.12031,0 4.32219,-0.652139 v 7.786671 q -2.97666,0.97845 -5.74937,0.97845 z m 35.39336,-60.173295 h 8.80762 v 59.0318 h -8.80762 z m 8.64452,50.796706 h 29.03231 v 8.235094 h -29.03231 z m 0,-26.458319 h 26.09648 v 7.908957 h -26.09648 z m 0,-24.338387 h 28.37994 v 8.235099 h -28.37994 z m 38.20692,16.959412 h 8.39975 V 95.714717 H 474.1478 Z M 501.87531,71.5394 q 0,-5.422154 -2.28312,-8.275867 -2.24256,-2.894484 -6.44259,-2.894484 -2.85444,0 -5.26007,1.426876 -2.4061,1.386095 -3.87411,4.239845 -1.468,2.81297 -1.468,7.012055 l -1.05979,-6.971321 v -6.278247 h 2.36512 l -2.36512,6.278247 q 0,-3.995222 1.75323,-7.052834 1.79422,-3.098329 4.97463,-4.810601 3.22079,-1.71224 7.33961,-1.71224 4.68918,0 7.99207,2.119931 3.30234,2.119927 5.0154,6.115173 1.71267,3.954487 1.71267,9.498899 v 25.47988 h -8.39949 z m 53.37544,2.486792 q 0,6.889779 -1.95733,11.741134 -1.91677,4.851376 -5.62703,7.338199 -3.67,2.446058 -8.88916,2.446058 -5.66777,0 -10.23471,-2.812971 -4.52608,-2.812971 -7.13573,-7.745886 -2.56878,-4.932892 -2.56878,-10.966544 0,-6.03361 2.56878,-10.966539 2.60934,-4.93291 7.13573,-7.745889 4.56689,-2.812981 10.23471,-2.812981 5.21937,0 8.88916,2.486841 3.71056,2.446058 5.62703,7.256674 1.95733,4.810599 1.95733,11.781894 l -4.15933,-14.309489 h 5.21939 v 28.619006 h -5.21939 z M 540.0822,87.764963 q 3.67,0 6.52411,-1.753009 2.895,-1.75301 4.48532,-4.892133 1.63113,-3.139107 1.63113,-7.093576 0,-4.036044 -1.63113,-7.134403 -1.59011,-3.098328 -4.48532,-4.851373 -2.85445,-1.75301 -6.52411,-1.75301 -3.71056,0 -6.56492,1.75301 -2.85401,1.75301 -4.48535,4.892142 -1.63111,3.139105 -1.63111,7.093568 0,3.954444 1.63111,7.093571 1.63113,3.139107 4.48535,4.892133 2.85445,1.753011 6.56492,1.75308 z m -0.93767,26.702917 q -6.23869,0 -10.96867,-2.56834 -4.72999,-2.52757 -8.48135,-7.70511 l 6.31996,-4.688259 q 2.7319,3.832159 5.79018,5.544439 3.09867,1.71223 7.17655,1.71223 6.52414,0 9.9493,-3.95444 3.46633,-3.913721 3.46633,-11.333468 V 85.84889 l 1.87579,-11.170379 -1.87579,-12.556486 v -8.479709 h 8.39984 v 37.832533 q 0,7.134408 -2.60934,12.311891 -2.60977,5.17751 -7.50277,7.90895 -4.85234,2.77223 -11.5396,2.77223 z M 571.3982,53.642297 h 8.39983 v 42.072402 h -8.39983 z m 4.1999,-7.949724 q -1.509,0 -2.73189,-0.693058 -1.18235,-0.693056 -1.91677,-1.875321 -0.69257,-1.223037 -0.69257,-2.731445 0,-1.508408 0.69257,-2.731447 0.73355,-1.223037 1.91677,-1.875321 1.22289,-0.693057 2.73189,-0.693057 1.509,0 2.7319,0.693057 1.26389,0.652298 1.91677,1.875321 0.69301,1.223039 0.69301,2.731447 0,1.508408 -0.69301,2.731445 -0.65201,1.182269 -1.91677,1.875321 -1.2229,0.693058 -2.7319,0.693058 z m 14.8016,7.949724 h 8.39992 v 42.072402 h -8.39983 z m 27.72751,17.897072 q 0,-5.422153 -2.28356,-8.275866 -2.24255,-2.894483 -6.44263,-2.894483 -2.85445,0 -5.26002,1.426874 -2.40611,1.386096 -3.87412,4.239844 -1.468,2.812971 -1.468,7.012057 l -1.05978,-6.971291 v -6.278247 h 2.36511 l -2.36511,6.278247 q 0,-3.995222 1.75322,-7.052834 1.79423,-3.098329 4.97463,-4.810601 3.22124,-1.71224 7.33961,-1.71224 4.6892,0 7.99207,2.119931 3.30278,2.119927 5.0154,6.115173 1.71267,3.954487 1.71267,9.498899 v 25.479885 h -8.39975 z m 39.2263,25.316812 q -6.36096,0 -11.45796,-2.853705 -5.05623,-2.894482 -7.95128,-7.990492 -2.85445,-5.096005 -2.85445,-11.333447 0,-6.318999 2.81346,-11.374226 2.81345,-5.05521 7.66583,-7.908959 4.89312,-2.894513 10.96871,-2.894513 6.07558,0 10.80559,2.894513 4.72971,2.853749 7.33958,7.908959 2.65033,5.055209 2.65033,11.374226 0,1.100695 -0.12214,2.813014 h -36.12723 v -7.378995 h 27.97226 l -0.64896,1.019227 q 0,-3.139106 -1.50855,-5.666702 -1.50857,-2.568392 -4.1999,-3.995266 -2.6909,-1.467652 -6.15714,-1.467652 -3.71057,0 -6.68721,1.793788 -2.93557,1.793787 -4.60769,4.973674 -1.63111,3.179884 -1.63111,7.297441 v 1.100695 q 0,4.158334 1.79379,7.419715 1.79466,3.220663 4.93389,5.01441 3.18025,1.75301 7.13573,1.75301 3.95567,0 6.72795,-1.712231 2.81345,-1.75301 4.32201,-4.851373 l 7.38034,2.976082 q -2.48766,5.177517 -7.29873,8.153564 -4.77079,2.935261 -11.25416,2.935261 z"
       id="text2"
       style="font-weight:500;font-size:1.10616px;font-family:'Wanted Sans Variable';-inkscape-font-specification:'Wanted Sans Variable Medium';letter-spacing:0px;fill:#8f7895;fill-opacity:1;stroke-width:0.396875;stroke-linecap:round;stroke-linejoin:round"
       aria-label="Monat Engine" />
  </g>
</svg>
