<?xml version="1.0" encoding="UTF-8" standalone="no"?>
<!-- Created with Inkscape (http://www.inkscape.org/) -->

<svg
   width="1193.0004"
   height="182.00005"
   viewBox="0 0 11.930004 1.8200004"
   version="1.1"
   id="svg1"
   inkscape:version="1.4 (86a8ad7, 2024-10-11)"
   sodipodi:docname="logotype.svg"
   xml:space="preserve"
   xmlns:inkscape="http://www.inkscape.org/namespaces/inkscape"
   xmlns:sodipodi="http://sodipodi.sourceforge.net/DTD/sodipodi-0.dtd"
   xmlns="http://www.w3.org/2000/svg"
   xmlns:svg="http://www.w3.org/2000/svg"><sodipodi:namedview
     id="namedview1"
     pagecolor="#ffffff"
     bordercolor="#999999"
     borderopacity="1"
     inkscape:showpageshadow="2"
     inkscape:pageopacity="0"
     inkscape:pagecheckerboard="true"
     inkscape:deskcolor="#d1d1d1"
     inkscape:document-units="px"
     showgrid="true"
     inkscape:lockguides="false"
     inkscape:zoom="0.5"
     inkscape:cx="249"
     inkscape:cy="175"
     inkscape:window-width="1920"
     inkscape:window-height="1009"
     inkscape:window-x="-8"
     inkscape:window-y="-8"
     inkscape:window-maximized="1"
     inkscape:current-layer="layer1"><inkscape:grid
       id="grid1"
       units="px"
       originx="-4.2549961"
       originy="-0.5499997"
       spacingx="0.01"
       spacingy="0.01"
       empcolor="#0099e5"
       empopacity="0.30196078"
       color="#0099e5"
       opacity="0.14901961"
       empspacing="5"
       dotted="false"
       gridanglex="30"
       gridanglez="30"
       visible="true" /></sodipodi:namedview><defs
     id="defs1"><inkscape:path-effect
       effect="fillet_chamfer"
       id="path-effect6"
       is_visible="true"
       lpeversion="1"
       nodesatellites_param="F,0,0,1,0,0,0,1 @ F,0,0,1,0,0,0,1 @ F,0,0,1,0,0,0,1"
       radius="0"
       unit="px"
       method="auto"
       mode="F"
       chamfer_steps="1"
       flexible="false"
       use_knot_distance="true"
       apply_no_radius="true"
       apply_with_radius="true"
       only_selected="false"
       hide_knots="false" /><inkscape:path-effect
       effect="fillet_chamfer"
       id="path-effect5"
       is_visible="true"
       lpeversion="1"
       nodesatellites_param="F,0,0,1,0,0,0,1 @ F,0,0,1,0,0,0,1 @ F,0,0,1,0,0,0,1 @ F,0,0,1,0,0,0,1"
       radius="0"
       unit="px"
       method="auto"
       mode="F"
       chamfer_steps="1"
       flexible="false"
       use_knot_distance="true"
       apply_no_radius="true"
       apply_with_radius="true"
       only_selected="false"
       hide_knots="false" /><inkscape:path-effect
       effect="fillet_chamfer"
       id="path-effect4"
       is_visible="true"
       lpeversion="1"
       nodesatellites_param="F,0,0,1,0,0,0,1 @ F,0,0,1,0,0,0,1 @ F,0,0,1,0,0,0,1 @ F,0,0,1,0,0,0,1"
       radius="0"
       unit="px"
       method="auto"
       mode="F"
       chamfer_steps="1"
       flexible="false"
       use_knot_distance="true"
       apply_no_radius="true"
       apply_with_radius="true"
       only_selected="false"
       hide_knots="false" /><inkscape:path-effect
       effect="fillet_chamfer"
       id="path-effect3"
       is_visible="true"
       lpeversion="1"
       nodesatellites_param="F,0,0,1,0,0,0,1 @ F,0,0,1,0,0,0,1 @ F,0,0,1,0,0,0,1 @ F,0,0,1,0,0,0,1 @ F,0,0,1,0,0,0,1 @ F,0,0,1,0,0,0,1 @ F,0,0,1,0,0,0,1 @ F,0,0,1,0,0,0,1"
       radius="0"
       unit="px"
       method="auto"
       mode="F"
       chamfer_steps="1"
       flexible="false"
       use_knot_distance="true"
       apply_no_radius="true"
       apply_with_radius="true"
       only_selected="false"
       hide_knots="false" /><inkscape:path-effect
       effect="fillet_chamfer"
       id="path-effect2"
       is_visible="true"
       lpeversion="1"
       nodesatellites_param="F,0,0,1,0,0,0,1 @ F,0,0,1,0,0,0,1 @ F,0,0,1,0,0,0,1 @ F,0,0,1,0,0,0,1"
       radius="0"
       unit="px"
       method="auto"
       mode="F"
       chamfer_steps="1"
       flexible="false"
       use_knot_distance="true"
       apply_no_radius="true"
       apply_with_radius="true"
       only_selected="false"
       hide_knots="false" /><inkscape:path-effect
       effect="fillet_chamfer"
       id="path-effect6-2"
       is_visible="true"
       lpeversion="1"
       nodesatellites_param="F,0,0,1,0,0,0,1 @ F,0,0,1,0,0,0,1 @ F,0,0,1,0,0,0,1"
       radius="0"
       unit="px"
       method="auto"
       mode="F"
       chamfer_steps="1"
       flexible="false"
       use_knot_distance="true"
       apply_no_radius="true"
       apply_with_radius="true"
       only_selected="false"
       hide_knots="false" /><inkscape:path-effect
       effect="fillet_chamfer"
       id="path-effect5-1"
       is_visible="true"
       lpeversion="1"
       nodesatellites_param="F,0,0,1,0,0,0,1 @ F,0,0,1,0,0,0,1 @ F,0,0,1,0,0,0,1 @ F,0,0,1,0,0,0,1"
       radius="0"
       unit="px"
       method="auto"
       mode="F"
       chamfer_steps="1"
       flexible="false"
       use_knot_distance="true"
       apply_no_radius="true"
       apply_with_radius="true"
       only_selected="false"
       hide_knots="false" /><inkscape:path-effect
       effect="fillet_chamfer"
       id="path-effect4-6"
       is_visible="true"
       lpeversion="1"
       nodesatellites_param="F,0,0,1,0,0,0,1 @ F,0,0,1,0,0,0,1 @ F,0,0,1,0,0,0,1 @ F,0,0,1,0,0,0,1"
       radius="0"
       unit="px"
       method="auto"
       mode="F"
       chamfer_steps="1"
       flexible="false"
       use_knot_distance="true"
       apply_no_radius="true"
       apply_with_radius="true"
       only_selected="false"
       hide_knots="false" /><inkscape:path-effect
       effect="fillet_chamfer"
       id="path-effect3-8"
       is_visible="true"
       lpeversion="1"
       nodesatellites_param="F,0,0,1,0,0,0,1 @ F,0,0,1,0,0,0,1 @ F,0,0,1,0,0,0,1 @ F,0,0,1,0,0,0,1 @ F,0,0,1,0,0,0,1 @ F,0,0,1,0,0,0,1 @ F,0,0,1,0,0,0,1 @ F,0,0,1,0,0,0,1"
       radius="0"
       unit="px"
       method="auto"
       mode="F"
       chamfer_steps="1"
       flexible="false"
       use_knot_distance="true"
       apply_no_radius="true"
       apply_with_radius="true"
       only_selected="false"
       hide_knots="false" /><inkscape:path-effect
       effect="fillet_chamfer"
       id="path-effect2-5"
       is_visible="true"
       lpeversion="1"
       nodesatellites_param="F,0,0,1,0,0,0,1 @ F,0,0,1,0,0,0,1 @ F,0,0,1,0,0,0,1 @ F,0,0,1,0,0,0,1"
       radius="0"
       unit="px"
       method="auto"
       mode="F"
       chamfer_steps="1"
       flexible="false"
       use_knot_distance="true"
       apply_no_radius="true"
       apply_with_radius="true"
       only_selected="false"
       hide_knots="false" /><clipPath
       clipPathUnits="userSpaceOnUse"
       id="clipPath1"><rect
         style="fill:#000000;fill-opacity:1;stroke:none;stroke-width:0.015;stroke-linecap:round;stroke-linejoin:round"
         id="rect1"
         width="0.16"
         height="0.16000003"
         x="0"
         y="-7.4505806e-09"
         rx="0"
         ry="0" /></clipPath><inkscape:path-effect
       effect="fillet_chamfer"
       id="path-effect6-27"
       is_visible="true"
       lpeversion="1"
       nodesatellites_param="F,0,0,1,0,0,0,1 @ F,0,0,1,0,0,0,1 @ F,0,0,1,0,0,0,1"
       radius="0"
       unit="px"
       method="auto"
       mode="F"
       chamfer_steps="1"
       flexible="false"
       use_knot_distance="true"
       apply_no_radius="true"
       apply_with_radius="true"
       only_selected="false"
       hide_knots="false" /><inkscape:path-effect
       effect="fillet_chamfer"
       id="path-effect5-9"
       is_visible="true"
       lpeversion="1"
       nodesatellites_param="F,0,0,1,0,0,0,1 @ F,0,0,1,0,0,0,1 @ F,0,0,1,0,0,0,1 @ F,0,0,1,0,0,0,1"
       radius="0"
       unit="px"
       method="auto"
       mode="F"
       chamfer_steps="1"
       flexible="false"
       use_knot_distance="true"
       apply_no_radius="true"
       apply_with_radius="true"
       only_selected="false"
       hide_knots="false" /><inkscape:path-effect
       effect="fillet_chamfer"
       id="path-effect4-5"
       is_visible="true"
       lpeversion="1"
       nodesatellites_param="F,0,0,1,0,0,0,1 @ F,0,0,1,0,0,0,1 @ F,0,0,1,0,0,0,1 @ F,0,0,1,0,0,0,1"
       radius="0"
       unit="px"
       method="auto"
       mode="F"
       chamfer_steps="1"
       flexible="false"
       use_knot_distance="true"
       apply_no_radius="true"
       apply_with_radius="true"
       only_selected="false"
       hide_knots="false" /><inkscape:path-effect
       effect="fillet_chamfer"
       id="path-effect3-4"
       is_visible="true"
       lpeversion="1"
       nodesatellites_param="F,0,0,1,0,0,0,1 @ F,0,0,1,0,0,0,1 @ F,0,0,1,0,0,0,1 @ F,0,0,1,0,0,0,1 @ F,0,0,1,0,0,0,1 @ F,0,0,1,0,0,0,1 @ F,0,0,1,0,0,0,1 @ F,0,0,1,0,0,0,1"
       radius="0"
       unit="px"
       method="auto"
       mode="F"
       chamfer_steps="1"
       flexible="false"
       use_knot_distance="true"
       apply_no_radius="true"
       apply_with_radius="true"
       only_selected="false"
       hide_knots="false" /><inkscape:path-effect
       effect="fillet_chamfer"
       id="path-effect2-3"
       is_visible="true"
       lpeversion="1"
       nodesatellites_param="F,0,0,1,0,0,0,1 @ F,0,0,1,0,0,0,1 @ F,0,0,1,0,0,0,1 @ F,0,0,1,0,0,0,1"
       radius="0"
       unit="px"
       method="auto"
       mode="F"
       chamfer_steps="1"
       flexible="false"
       use_knot_distance="true"
       apply_no_radius="true"
       apply_with_radius="true"
       only_selected="false"
       hide_knots="false" /></defs><g
     inkscape:label="Layer 1"
     inkscape:groupmode="layer"
     id="layer1"
     transform="translate(-4.254996,-0.54999971)"><path
       d="M 4.254996,0.58645685 H 4.4550762 V 1.9400052 H 4.254996 Z m 0.1963403,0.3804518 0.026178,0.0261732 h -0.026178 v -0.0261732 -0.3804518 h 0.057966 l 0.426339,1.05816075 -0.022439,-0.018695 h 0.022439 v 0.018695 0.2953875 h -0.09256 z M 4.9281625,1.9400052 V 1.6446176 1.6259228 h 0.021504 l -0.021504,0.018695 0.4263388,-1.05816082 h 0.057966 v 0.38045177 0.0261736 H 5.3862897 L 5.4124685,0.96690865 5.019788,1.9400052 Z M 5.4087286,0.58645685 h 0.20008 V 1.9400052 h -0.20008 z m 0.903165,1.37972185 q -0.1393073,0 -0.2543074,-0.066368 Q 5.9435225,1.8334424 5.8771402,1.7165955 5.8116939,1.5997484 5.8116939,1.457664 q 0,-0.1439546 0.065446,-0.2598664 Q 5.9435209,1.081886 6.0575856,1.0155172 6.1725841,0.9491485 6.311893,0.9491485 q 0.1411785,0 0.2552424,0.0663687 0.1140637,0.066368 0.179511,0.1822804 0.065446,0.1159116 0.065446,0.2598664 0,0.1420855 -0.065446,0.2589315 -0.065446,0.1168469 -0.179511,0.183215 -0.1140639,0.066368 -0.2552418,0.066368 z m 0,-0.1804108 q 0.08882,0 0.1589422,-0.042065 0.071057,-0.042065 0.1093901,-0.1159124 0.039268,-0.074781 0.039268,-0.1701277 0,-0.095347 -0.039268,-0.1691932 -0.038333,-0.074781 -0.1093901,-0.1168465 -0.070122,-0.042065 -0.1589422,-0.042065 -0.08882,0 -0.1589422,0.042065 -0.069187,0.042065 -0.1093901,0.1168465 -0.039268,0.073846 -0.039268,0.1691932 0,0.095347 0.039268,0.1701277 0.040203,0.073847 0.1093901,0.1159124 0.070122,0.042065 0.1589422,0.042065 z M 7.008434,0.97532157 H 7.2010346 V 1.9400052 H 7.008434 Z M 7.6442024,1.385686 q 0,-0.1243253 -0.052358,-0.1897585 -0.051422,-0.066368 -0.1477235,-0.066368 -0.065446,0 -0.1206088,0.032717 -0.055163,0.031782 -0.08882,0.097216 -0.033658,0.064499 -0.033658,0.1607804 L 7.176725,1.2604265 V 1.1164717 H 7.230953 L 7.176725,1.2604265 q 0,-0.091607 0.040203,-0.1617154 0.041138,-0.071042 0.1140637,-0.11030294 0.073861,-0.0392602 0.1682915,-0.0392602 0.1075189,0 0.1832508,0.0486082 0.075731,0.0486081 0.1149985,0.14021564 0.039268,0.090673 0.039268,0.2178016 V 1.9400052 H 7.6442024 Z m 1.2238539,0.071977 q 0,0.1635857 -0.044879,0.2776269 -0.043944,0.1140416 -0.1290232,0.1729332 -0.084144,0.057955 -0.2038198,0.057955 -0.1299582,0 -0.2346733,-0.066368 -0.1037795,-0.066367 -0.1636157,-0.1832144 -0.058902,-0.116847 -0.058902,-0.2589316 0,-0.1439546 0.058902,-0.2598664 0.059837,-0.1159115 0.1636161,-0.1822803 0.1047145,-0.0663687 0.2346733,-0.0663687 0.119674,0 0.2038198,0.0588906 0.085082,0.057956 0.1290232,0.1719979 0.044879,0.114042 0.044879,0.2776269 L 8.7726912,1.1202111 H 8.8904956 V 1.7951158 H 8.7726912 Z M 8.5202536,1.7857679 q 0.084147,0 0.1495931,-0.042065 0.066381,-0.042065 0.102845,-0.1159124 0.037399,-0.074781 0.037399,-0.1701277 0,-0.095347 -0.037399,-0.1691932 -0.036464,-0.074781 -0.102845,-0.116846 -0.065446,-0.042065 -0.1495931,-0.042065 -0.085082,0 -0.1505276,0.042065 -0.065447,0.042065 -0.1028451,0.1168465 -0.037399,0.073846 -0.037399,0.1691932 0,0.093477 0.037399,0.1691931 0.037399,0.074781 0.1028451,0.116847 0.065446,0.042065 0.1505276,0.042064 z m 0.282356,0.1542367 V 1.7455729 L 8.8437476,1.4576635 8.8026096,1.2015361 V 0.97532157 H 8.9961451 V 1.9400052 Z M 9.1803312,0.97532157 H 9.7712218 V 1.1314284 H 9.1803312 Z M 9.6403284,1.9661787 q -0.091625,0 -0.1589423,-0.038326 Q 9.4140701,1.8885927 9.378541,1.8156803 9.343014,1.7427683 9.343014,1.6427471 v -0.906727 h 0.1935348 v 0.8973801 q 0,0.075717 0.032723,0.1112378 0.033659,0.03552 0.1037798,0.03552 0.048617,0 0.099104,-0.014953 v 0.1785417 q -0.068252,0.022435 -0.1318277,0.022435 z M 10.451868,0.58645685 h 0.201951 V 1.9400052 h -0.201951 z m 0.198211,1.16472475 h 0.665686 v 0.1888236 h -0.665686 z m 0,-0.6066665 h 0.59837 v 0.1813456 h -0.59837 z m 0,-0.55805825 h 0.650728 v 0.18882373 h -0.650728 z m 0.876052,0.38886472 H 11.71873 V 1.9400052 H 11.526131 Z M 12.161899,1.385686 q 0,-0.1243253 -0.05235,-0.1897585 -0.05142,-0.066368 -0.147723,-0.066368 -0.06545,0 -0.120609,0.032717 -0.05517,0.031782 -0.08883,0.097216 -0.03366,0.064499 -0.03366,0.1607804 l -0.0243,-0.1598464 V 1.1164717 h 0.05423 l -0.05423,0.1439548 q 0,-0.091607 0.0402,-0.1617154 0.04114,-0.071042 0.114064,-0.11030294 0.07385,-0.0392602 0.168291,-0.0392602 0.107519,0 0.183251,0.0486082 0.07572,0.0486081 0.114999,0.14021564 0.03927,0.090673 0.03927,0.2178016 v 0.5842317 h -0.192593 z m 1.223853,0.05702 q 0,0.1579767 -0.04488,0.2692141 -0.04395,0.1112379 -0.129023,0.1682586 -0.08415,0.056086 -0.203821,0.056086 -0.129957,0 -0.234673,-0.064499 -0.103779,-0.064499 -0.163616,-0.1776065 -0.0589,-0.113107 -0.0589,-0.2514534 0,-0.1383455 0.0589,-0.2514533 0.05983,-0.1131074 0.163616,-0.1776066 0.104715,-0.0644992 0.234673,-0.0644992 0.119676,0 0.203821,0.0570211 0.08508,0.056086 0.129023,0.1663893 0.04488,0.1103029 0.04488,0.2701487 l -0.09537,-0.3281043 h 0.119676 V 1.7708107 H 13.290382 Z M 13.03795,1.7577242 q 0.08415,0 0.149592,-0.040195 0.06638,-0.040195 0.102845,-0.1121724 0.0374,-0.071977 0.0374,-0.1626496 0,-0.092543 -0.0374,-0.1635857 -0.03646,-0.071042 -0.102845,-0.1112378 -0.06545,-0.040195 -0.149592,-0.040195 -0.08508,0 -0.150528,0.040195 -0.06544,0.040195 -0.102845,0.1121726 -0.0374,0.071977 -0.0374,0.1626494 0,0.090672 0.0374,0.1626495 0.0374,0.071977 0.102845,0.1121724 0.06545,0.040195 0.150528,0.040197 z m -0.0215,0.612275 q -0.143048,0 -0.251502,-0.05889 -0.108455,-0.057955 -0.19447,-0.1766717 L 12.715389,2.02694 q 0.06264,0.087868 0.132764,0.127129 0.07105,0.03926 0.164552,0.03926 0.149593,0 0.228129,-0.090672 0.07948,-0.089738 0.07948,-0.2598664 V 1.7137903 l 0.04301,-0.2561272 -0.04301,-0.2879094 V 0.97532127 h 0.192601 V 1.8427887 q 0,0.1635858 -0.05983,0.2823009 -0.05984,0.118716 -0.172032,0.1813455 -0.11126,0.063565 -0.264593,0.063565 z M 13.755999,0.97532087 H 13.9486 V 1.9400048 h -0.192601 z m 0.0963,-0.18228036 q -0.0346,0 -0.06264,-0.0158912 -0.02711,-0.0158912 -0.04395,-0.0429995 -0.01588,-0.0280432 -0.01588,-0.0626297 0,-0.0345865 0.01588,-0.0626297 0.01682,-0.0280432 0.04395,-0.0429995 0.02804,-0.0158912 0.06264,-0.0158912 0.0346,0 0.06264,0.0158912 0.02898,0.0149566 0.04395,0.0429995 0.01589,0.0280432 0.01589,0.0626297 0,0.0345865 -0.01589,0.0626297 -0.01495,0.0271084 -0.04395,0.0429995 -0.02804,0.0158912 -0.06264,0.0158912 z m 0.339388,0.18228036 H 14.38429 V 1.9400048 h -0.192601 z m 0.635768,0.41036443 q 0,-0.1243253 -0.05236,-0.1897585 -0.05142,-0.066368 -0.147724,-0.066368 -0.06545,0 -0.120608,0.032717 -0.05517,0.031782 -0.08883,0.097216 -0.03366,0.064499 -0.03366,0.1607804 l -0.0243,-0.1598457 V 1.1164717 h 0.05423 l -0.05423,0.1439548 q 0,-0.091607 0.0402,-0.1617154 0.04114,-0.071042 0.114064,-0.11030294 0.07386,-0.0392602 0.168291,-0.0392602 0.107519,0 0.183251,0.0486082 0.07573,0.0486081 0.114999,0.14021564 0.03927,0.090673 0.03927,0.2178016 V 1.9400052 H 14.827449 Z M 15.72688,1.966178 q -0.145851,0 -0.262721,-0.065433 -0.115935,-0.066368 -0.182316,-0.1832151 -0.06545,-0.116847 -0.06545,-0.2598662 0,-0.1448892 0.06451,-0.2608012 0.06451,-0.1159116 0.175771,-0.1813456 0.112195,-0.0663687 0.251503,-0.0663687 0.139308,0 0.247763,0.0663687 0.108448,0.065434 0.16829,0.1813456 0.06077,0.1159116 0.06077,0.2608012 0,0.025238 -0.0028,0.0645 h -0.828367 v -0.169194 h 0.64138 l -0.01488,0.02337 q 0,-0.071977 -0.03459,-0.1299326 -0.03459,-0.058891 -0.0963,-0.091608 -0.0617,-0.033652 -0.141178,-0.033652 -0.08508,0 -0.153332,0.04113 -0.06731,0.04113 -0.10565,0.1140421 -0.0374,0.072912 -0.0374,0.167324 v 0.025238 q 0,0.095347 0.04113,0.1701277 0.04115,0.073847 0.11313,0.1149761 0.07292,0.040195 0.163616,0.040195 0.0907,0 0.154266,-0.03926 0.06451,-0.040195 0.0991,-0.1112378 l 0.169225,0.068239 q -0.05704,0.118716 -0.167354,0.1869542 -0.10939,0.067303 -0.258048,0.067303 z"
       id="text2"
       style="font-weight:500;font-size:1.10616px;font-family:'Wanted Sans Variable';-inkscape-font-specification:'Wanted Sans Variable Medium';letter-spacing:0px;fill:#8f7895;fill-opacity:1;stroke-width:0.015;stroke-linecap:round;stroke-linejoin:round"
       aria-label="Monat Engine" /></g></svg>
