<?xml version="1.0" encoding="UTF-8" standalone="no"?>
<!-- Created with Inkscape (http://www.inkscape.org/) -->

<svg
   width="1967"
   height="900"
   viewBox="0 0 520.43539 238.125"
   version="1.1"
   id="svg1"
   inkscape:version="1.4 (86a8ad7, 2024-10-11)"
   sodipodi:docname="logo-vertical.svg"
   xmlns:inkscape="http://www.inkscape.org/namespaces/inkscape"
   xmlns:sodipodi="http://sodipodi.sourceforge.net/DTD/sodipodi-0.dtd"
   xmlns="http://www.w3.org/2000/svg"
   xmlns:svg="http://www.w3.org/2000/svg">
  <sodipodi:namedview
     id="namedview1"
     pagecolor="#ffffff"
     bordercolor="#999999"
     borderopacity="1"
     inkscape:showpageshadow="2"
     inkscape:pageopacity="0"
     inkscape:pagecheckerboard="true"
     inkscape:deskcolor="#d1d1d1"
     inkscape:document-units="px"
     showgrid="true"
     inkscape:zoom="0.5"
     inkscape:cx="1022"
     inkscape:cy="465"
     inkscape:window-width="1920"
     inkscape:window-height="1009"
     inkscape:window-x="-8"
     inkscape:window-y="-8"
     inkscape:window-maximized="1"
     inkscape:current-layer="layer1">
    <inkscape:grid
       id="grid2"
       units="px"
       originx="-157.03448"
       originy="120.65"
       spacingx="0.26458332"
       spacingy="0.26458334"
       empcolor="#0099e5"
       empopacity="0.30196078"
       color="#0099e5"
       opacity="0.14901961"
       empspacing="5"
       enabled="true"
       visible="true" />
  </sodipodi:namedview>
  <defs
     id="defs1" />
  <g
     inkscape:label="Layer 1"
     inkscape:groupmode="layer"
     id="layer1"
     transform="translate(-157.0345,120.65)">
    <g
       id="g3"
       transform="translate(349.51887,-120.65)">
      <rect
         style="fill:#c62edc;fill-opacity:1;stroke:none;stroke-width:0.529167;stroke-linecap:round;stroke-linejoin:round"
         id="rect2"
         width="135.46666"
         height="135.46666"
         x="0"
         y="0"
         rx="16.933332"
         ry="16.933332" />
      <g
         id="g2"
         transform="matrix(0.93750012,0,0,0.93750012,-124.25497,6.2177009)"
         style="stroke-width:1.06667">
        <g
           id="g10"
           style="fill:#ffffff;fill-opacity:0.4;stroke-width:0.1"
           transform="matrix(10.666665,0,0,10.666665,170.92084,31.750001)"
           clip-path="none">
          <path
             style="fill:#ffffff;fill-opacity:0.4;stroke:none;stroke-width:0.0396876;stroke-linecap:round;stroke-linejoin:round"
             d="M 1.5874998,0 H 3.175 L 4.7624999,6.3500002 H 3.175 Z"
             id="path9" />
          <path
             style="fill:#ffffff;fill-opacity:0.4;stroke:none;stroke-width:0.0396876;stroke-linecap:round;stroke-linejoin:round"
             d="M 4.7624998,0 H 6.35 L 7.9374999,6.3500002 H 6.35 Z"
             id="path10" />
          <path
             style="fill:#ffffff;fill-opacity:0.4;stroke:none;stroke-width:0.0396876;stroke-linecap:round;stroke-linejoin:round"
             d="M -1.5875001,0 H 6.0542605e-8 L 1.5875,6.3500002 H 6.0542605e-8 Z"
             id="path8" />
        </g>
        <g
           id="g11"
           style="fill:#ffffff;fill-opacity:1;stroke-width:0.1"
           transform="matrix(10.666665,0,0,10.666665,170.92084,31.750001)"
           clip-path="none">
          <rect
             style="fill:#ffffff;fill-opacity:1;stroke:none;stroke-width:0.044372;stroke-linecap:round;stroke-linejoin:round"
             id="rect7"
             width="1.5875"
             height="7.9375005"
             x="4.7624998"
             y="0"
             transform="matrix(1,0,-0.59999997,0.80000002,0,0)" />
          <rect
             style="fill:#ffffff;fill-opacity:1;stroke:none;stroke-width:0.044372;stroke-linecap:round;stroke-linejoin:round"
             id="rect8"
             width="1.5875"
             height="7.9375005"
             x="1.5874999"
             y="0"
             transform="matrix(1,0,-0.59999997,0.80000002,0,0)" />
          <rect
             style="fill:#ffffff;fill-opacity:1;stroke:none;stroke-width:0.044372;stroke-linecap:round;stroke-linejoin:round"
             id="rect6"
             width="1.5875"
             height="7.9375005"
             x="7.9375"
             y="-2.349972e-15"
             transform="matrix(1,0,-0.59999997,0.80000002,0,0)" />
        </g>
      </g>
    </g>
    <path
       d="m 157.0345,39.669568 h 8.72831 v 59.047296 h -8.72831 z m 8.56517,16.596858 1.14198,1.141781 h -1.14198 V 56.266426 39.669568 h 2.5287 l 18.59865,46.161284 -0.97889,-0.815551 h 0.97889 v 0.815551 12.886007 h -4.03784 z m 20.80111,42.450438 V 85.830852 85.015309 h 0.93807 l -0.93807,0.815551 18.59863,-46.161287 h 2.5287 v 16.596858 1.141799 h -1.14196 l 1.14201,-1.141804 -17.13033,42.450438 z m 20.96424,-59.047296 h 8.72831 v 59.047296 h -8.72831 z m 39.39973,60.189091 q -6.07715,0 -11.09392,-2.895244 -4.97592,-2.895255 -7.87179,-7.992594 -2.85504,-5.097345 -2.85504,-11.295646 0,-6.279887 2.85504,-11.336432 2.89581,-5.056537 7.87177,-7.951815 5.0167,-2.895273 11.09393,-2.895273 6.15878,0 11.13471,2.895273 4.97591,2.895244 7.831,7.951815 2.85501,5.056535 2.85501,11.336432 0,6.198348 -2.85501,11.295646 -2.85502,5.097339 -7.831,7.992586 -4.97593,2.895242 -11.1347,2.895252 z m 0,-7.870255 q 3.87469,0 6.93372,-1.835047 3.09979,-1.835047 4.77204,-5.056571 1.71302,-3.262252 1.71302,-7.421664 0,-4.159425 -1.71302,-7.380897 -1.67225,-3.262252 -4.77204,-5.097321 -3.05901,-1.835047 -6.93372,-1.835047 -3.87469,0 -6.93369,1.835047 -3.01824,1.835047 -4.77205,5.097321 -1.71303,3.221463 -1.71303,7.380897 0,4.159423 1.71303,7.421664 1.75381,3.221507 4.77205,5.056571 3.059,1.835047 6.93369,1.835047 z m 30.38593,-35.354972 h 8.40203 v 42.083432 h -8.40203 z m 27.73481,17.901769 q 0,-5.423577 -2.28406,-8.27804 -2.24324,-2.895243 -6.4443,-2.895243 -2.85502,0 -5.26145,1.42725 -2.40644,1.386459 -3.8747,4.240958 -1.46828,2.813709 -1.46828,7.013896 l -1.06047,-6.973151 v -6.279895 h 2.36564 l -2.36564,6.279895 q 0,-3.996271 1.75381,-7.054686 1.79462,-3.099142 4.97593,-4.811863 3.22212,-1.71269 7.34156,-1.71269 4.69041,0 7.99414,2.120488 3.30371,2.120483 5.0167,6.116778 1.71304,3.955525 1.71304,9.501392 v 25.486574 h -8.40192 z m 53.38951,3.13993 q 0,7.136275 -1.95782,12.111216 -1.91701,4.974961 -5.62852,7.544051 -3.6707,2.528235 -8.89144,2.528235 -5.66931,0 -10.2374,-2.895244 -4.5273,-2.895199 -7.13759,-7.992558 -2.56955,-5.097342 -2.56955,-11.295653 0,-6.279886 2.56955,-11.336432 2.61034,-5.056532 7.1376,-7.951808 4.56808,-2.895275 10.2374,-2.895275 5.22068,0 8.89145,2.569048 3.71162,2.528279 5.62852,7.503251 1.95781,4.974976 1.95781,12.111216 l -4.16024,-14.721075 h 5.13911 v 29.442095 h -5.13911 z m -15.17257,14.313273 q 3.67083,0 6.52585,-1.835047 2.89581,-1.835047 4.48652,-5.056571 1.63149,-3.262252 1.63149,-7.421664 0,-4.159425 -1.63149,-7.380897 -1.59071,-3.262252 -4.48652,-5.0973 -2.85502,-1.835045 -6.52585,-1.835045 -3.71164,0 -6.56663,1.835045 -2.85507,1.835048 -4.48652,5.097322 -1.63151,3.221463 -1.63151,7.380897 0,4.077848 1.63151,7.380892 1.63149,3.262252 4.48652,5.097343 2.85501,1.835046 6.56663,1.835025 z m 12.31751,6.728434 v -8.481904 l 1.79461,-12.559782 -1.79461,-11.173321 v -9.868399 h 8.44281 V 98.716864 Z M 371.8977,56.633432 h 25.77705 v 6.810015 H 371.8977 Z m 20.06695,43.225227 q -3.99707,0 -6.93372,-1.671937 -2.9366,-1.712681 -4.48652,-4.893417 -1.54984,-3.180719 -1.54984,-7.544051 V 46.194126 h 8.44278 v 39.147377 q 0,3.303085 1.42752,4.852646 1.46834,1.549528 4.5273,1.549528 2.12086,0 4.32332,-0.65231 v 7.788715 q -2.97744,0.978707 -5.75088,0.978707 z M 427.3673,39.669568 h 8.80993 v 59.047296 h -8.80993 z m 8.64679,50.81004 h 29.03993 v 8.237256 h -29.03993 z m 0,-26.465264 h 26.10333 v 7.911033 h -26.10333 z m 0,-24.344776 h 28.38739 v 8.237261 h -28.38739 z m 38.21695,16.963864 h 8.40196 v 42.083432 h -8.40196 z m 27.73479,17.901769 q 0,-5.423577 -2.28372,-8.27804 -2.24315,-2.895243 -6.44428,-2.895243 -2.85519,0 -5.26145,1.42725 -2.40673,1.386459 -3.87513,4.240958 -1.46838,2.813709 -1.46838,7.013896 l -1.06007,-6.973151 v -6.279895 h 2.36574 l -2.36574,6.279895 q 0,-3.996271 1.75369,-7.054686 1.79469,-3.099142 4.97593,-4.811863 3.22164,-1.71269 7.34154,-1.71269 4.69041,0 7.99417,2.120488 3.3032,2.120483 5.01671,6.116778 1.71312,3.955525 1.71312,9.501392 v 25.486569 h -8.40169 z m 53.38945,2.487445 q 0,6.891587 -1.95784,11.744216 -1.91728,4.852649 -5.62851,7.340125 -3.67096,2.4467 -8.89149,2.4467 -5.66926,0 -10.2374,-2.813709 -4.52727,-2.81371 -7.1376,-7.74792 -2.56946,-4.934187 -2.56946,-10.969422 0,-6.035194 2.56946,-10.969418 2.61002,-4.934205 7.1376,-7.747922 4.56809,-2.81372 10.2374,-2.81372 5.22074,0 8.89149,2.487494 3.71153,2.4467 5.62851,7.258579 1.95784,4.811862 1.95784,11.784987 L 551.19486,62.70939 h 5.22076 v 28.626519 h -5.22076 z m -15.17253,13.742377 q 3.67096,0 6.52582,-1.753469 2.89576,-1.75347 4.4865,-4.893417 1.63156,-3.139931 1.63156,-7.095438 0,-4.037104 -1.63156,-7.136276 -1.59053,-3.099141 -4.4865,-4.852647 -2.8552,-1.75347 -6.52582,-1.75347 -3.71154,0 -6.56664,1.75347 -2.85476,1.753471 -4.48653,4.893427 -1.63154,3.139929 -1.63154,7.09543 0,3.955482 1.63154,7.095433 1.63156,3.139931 4.48653,4.893417 2.85519,1.753471 6.56664,1.75354 z m -0.93792,26.709927 q -6.24033,0 -10.97155,-2.56902 -4.73123,-2.52823 -8.48357,-7.70713 l 6.32162,-4.68949 q 2.73261,3.83316 5.7917,5.54589 3.09948,1.71268 7.17843,1.71268 6.52585,0 9.95191,-3.95548 3.46724,-3.91474 3.46724,-11.336434 v -5.627519 l 1.87628,-11.173311 -1.87628,-12.559782 v -8.481935 h 8.40205 v 37.842464 q 0,7.136277 -2.61003,12.315117 -2.61045,5.17887 -7.50474,7.91103 -4.85361,2.77296 -11.54263,2.77296 z M 571.50697,56.6334 h 8.40203 v 42.083446 h -8.40203 z m 4.201,-7.951811 q -1.50939,0 -2.73261,-0.69324 -1.18266,-0.693238 -1.91727,-1.875813 -0.69275,-1.223358 -0.69275,-2.732162 0,-1.508804 0.69275,-2.732164 0.73374,-1.223358 1.91727,-1.875813 1.22322,-0.693239 2.73261,-0.693239 1.5094,0 2.73262,0.693239 1.26422,0.652469 1.91727,1.875813 0.69319,1.22336 0.69319,2.732164 0,1.508804 -0.69319,2.732162 -0.65218,1.182579 -1.91727,1.875813 -1.22322,0.69324 -2.73262,0.69324 z m 14.80549,7.951811 h 8.40212 v 42.083446 h -8.40203 z m 27.73479,17.90177 q 0,-5.423576 -2.28416,-8.278039 -2.24314,-2.895242 -6.44433,-2.895242 -2.85519,0 -5.2614,1.427248 -2.40674,1.38646 -3.87513,4.240957 -1.46839,2.81371 -1.46839,7.013898 l -1.06006,-6.973121 v -6.279895 h 2.36573 l -2.36573,6.279895 q 0,-3.996271 1.75368,-7.054686 1.7947,-3.099142 4.97594,-4.811863 3.22209,-1.71269 7.34154,-1.71269 4.69043,0 7.99416,2.120488 3.30365,2.120483 5.01672,6.116778 1.71312,3.955525 1.71312,9.501392 v 25.486574 h -8.40195 z m 39.23659,25.323458 q -6.36263,0 -11.46097,-2.854455 -5.05755,-2.895241 -7.95336,-7.992589 -2.8552,-5.097343 -2.8552,-11.336422 0,-6.320658 2.8142,-11.377212 2.81419,-5.056537 7.66784,-7.911035 4.8944,-2.895273 10.97159,-2.895273 6.07717,0 10.80842,2.895273 4.73096,2.854498 7.34151,7.911035 2.65103,5.056536 2.65103,11.377212 0,1.100984 -0.12218,2.813752 h -36.13671 v -7.380932 h 27.9796 l -0.64913,1.019495 q 0,-3.13993 -1.50894,-5.66819 -1.50897,-2.569066 -4.201,-3.996314 -2.69161,-1.468038 -6.15876,-1.468038 -3.71154,0 -6.68897,1.794259 -2.93634,1.794258 -4.6089,4.97498 -1.63153,3.180719 -1.63153,7.299356 v 1.100984 q 0,4.159426 1.79426,7.421663 1.79513,3.221508 4.93518,5.015726 3.18109,1.75347 7.13761,1.75347 3.9567,0 6.72971,-1.71268 2.81419,-1.75347 4.32315,-4.852647 l 7.38227,2.976864 q -2.48831,5.178876 -7.30064,8.155704 -4.77205,2.936032 -11.25712,2.936032 z"
       id="text2"
       style="font-weight:500;font-size:1.10616px;font-family:'Wanted Sans Variable';-inkscape-font-specification:'Wanted Sans Variable Medium';letter-spacing:0px;fill:#8f7895;fill-opacity:1;stroke-width:0.396875;stroke-linecap:round;stroke-linejoin:round"
       aria-label="Monat Engine" />
  </g>
</svg>
