<svg width="2500" height="1250" xmlns="http://www.w3.org/2000/svg" xmlns:xlink="http://www.w3.org/1999/xlink" xml:space="preserve" overflow="hidden"><g><rect x="0" y="0" width="2500" height="1250" fill="#FFC000"/><path d="M1245.26 383C1266.92 383 1286.76 386.155 1304.8 392.464 1322.85 398.773 1338.41 407.561 1351.49 418.827 1364.57 430.093 1374.72 443.387 1381.94 458.71 1389.15 474.032 1392.76 490.706 1392.76 508.732 1392.76 521.801 1391.07 533.743 1387.69 544.559 1384.3 555.374 1379.68 564.951 1373.82 573.288 1367.95 581.625 1361.41 588.722 1354.2 594.581 1346.98 600.439 1339.54 605.397 1331.87 609.453L1331.87 613.508C1342.24 618.015 1352.17 623.761 1361.64 630.746 1371.11 637.731 1379.34 645.955 1386.33 655.419 1393.33 664.883 1398.85 675.586 1402.91 687.528 1406.97 699.47 1409 712.427 1409 726.397 1409 746.676 1404.94 765.491 1396.82 782.841 1388.7 800.191 1377.54 815.062 1363.33 827.455 1349.12 839.848 1332.32 849.537 1312.92 856.523 1293.53 863.507 1272.33 867 1249.32 867 1233.09 867 1216.85 864.747 1200.61 860.24 1184.37 855.734 1169.15 848.636 1154.94 838.947 1140.73 829.258 1127.99 816.978 1116.71 802.106 1105.43 787.235 1096.86 769.434 1091 748.704L1161.37 719.637C1167.68 743.972 1178.51 762.674 1193.84 775.743 1209.18 788.812 1227.67 795.346 1249.32 795.346 1260.15 795.346 1270.64 793.544 1280.79 789.939 1290.93 786.333 1299.84 781.264 1307.51 774.729 1315.18 768.195 1321.27 760.533 1325.78 751.746 1330.29 742.958 1332.55 733.157 1332.55 722.341 1332.55 711.525 1330.18 701.611 1325.44 692.598 1320.7 683.585 1314.28 675.924 1306.16 669.615 1298.04 663.306 1288.45 658.348 1277.4 654.743 1266.35 651.138 1254.51 649.335 1241.88 649.335L1201.96 649.335 1201.96 579.709 1237.82 579.709C1248.65 579.709 1258.68 578.245 1267.93 575.316 1277.18 572.386 1285.41 568.218 1292.63 562.81 1299.84 557.402 1305.48 550.53 1309.54 542.193 1313.6 533.856 1315.63 524.279 1315.63 513.464 1315.63 494.987 1308.98 480.453 1295.67 469.863 1282.36 459.273 1265.56 453.978 1245.26 453.978 1233.99 453.978 1224.18 455.555 1215.83 458.71 1207.49 461.864 1200.38 466.145 1194.52 471.553 1188.66 476.961 1183.81 482.932 1179.97 489.466 1176.14 496.001 1173.09 502.648 1170.84 509.408L1101.83 480.341C1105.43 469.525 1111.07 458.372 1118.74 446.88 1126.41 435.388 1136.11 424.911 1147.83 415.447 1159.56 405.983 1173.43 398.209 1189.45 392.126 1205.46 386.042 1224.06 383 1245.26 383Z" fill="#FFFF00" fill-rule="evenodd"/></g></svg>