<svg width="2500" height="1250" xmlns="http://www.w3.org/2000/svg" xmlns:xlink="http://www.w3.org/1999/xlink" xml:space="preserve" overflow="hidden"><g><rect x="0" y="0" width="2500" height="1250" fill="#92D050"/><path d="M1245.96 388C1268.88 388 1289.55 391.612 1307.97 398.834 1326.4 406.057 1342.13 415.763 1355.16 427.952 1368.19 440.14 1378.19 454.36 1385.16 470.612 1392.12 486.863 1395.61 504.243 1395.61 522.752 1395.61 537.198 1393.47 551.191 1389.2 564.734 1384.93 578.277 1379.32 591.256 1372.35 603.67 1365.39 616.084 1357.52 627.709 1348.76 638.543 1339.99 649.377 1331.12 659.309 1322.13 668.337 1319.88 670.594 1316.51 673.98 1312.02 678.495 1307.52 683.009 1302.24 688.313 1296.18 694.407 1290.11 700.502 1283.48 706.934 1276.29 713.706 1269.1 720.929 1261.91 728.152 1254.72 735.375L1200.12 790.223 1200.79 792.932 1401 792.932 1401 862 1101.02 862 1101.02 790.9C1127.09 765.169 1151.13 741.017 1173.15 718.446 1182.59 708.966 1192.14 699.26 1201.8 689.329 1211.46 679.398 1220.56 670.03 1229.1 661.227 1237.64 652.425 1245.51 644.299 1252.7 636.85 1259.89 629.402 1265.5 623.42 1269.55 618.906 1278.09 608.975 1285.5 600.172 1291.79 592.498 1298.09 584.823 1303.25 577.375 1307.3 570.152 1311.34 562.929 1314.38 555.706 1316.4 548.483 1318.42 541.26 1319.43 533.134 1319.43 524.106 1319.43 515.98 1317.75 508.08 1314.38 500.406 1311.01 492.732 1306.18 485.848 1299.88 479.753 1293.59 473.659 1285.84 468.693 1276.63 464.856 1267.41 461.019 1256.74 459.1 1244.61 459.1 1232.92 459.1 1222.7 461.019 1213.94 464.856 1205.17 468.693 1197.64 473.659 1191.35 479.753 1185.06 485.848 1179.89 492.393 1175.85 499.39 1171.8 506.387 1168.88 513.272 1167.08 520.043L1099 492.28C1102.15 481.446 1107.54 469.934 1115.18 457.746 1122.82 445.557 1132.71 434.272 1144.84 423.889 1156.97 413.506 1171.47 404.929 1188.32 398.157 1205.17 391.386 1224.38 388 1245.96 388Z" fill="#00B050" fill-rule="evenodd"/></g></svg>