<?xml version="1.0" encoding="UTF-8"?>
<svg width="16" height="16" version="1.1" viewBox="0 0 .16 .16" xmlns="http://www.w3.org/2000/svg">
<path d="m0.115 0a0.045 0.045 0 0 0-0.045 0.045v5e-3h0.02v-5e-3a0.025 0.025 0 0 1 0.025-0.025 0.025 0.025 0 0 1 0.025 0.025 0.025 0.025 0 0 1-0.025 0.025h-5e-3 -0.02-0.02-0.02-5e-3a0.045 0.045 0 0 0-0.045 0.045 0.045 0.045 0 0 0 0.045 0.045 0.045 0.045 0 0 0 0.045-0.045v-5e-3h-0.02v5e-3a0.025 0.025 0 0 1-0.025 0.025 0.025 0.025 0 0 1-0.025-0.025 0.025 0.025 0 0 1 0.025-0.025h5e-3 0.02 0.02 0.02 5e-3a0.045 0.045 0 0 0 0.045-0.045 0.045 0.045 0 0 0-0.045-0.045z" fill="#b100ff" stroke-linecap="round" stroke-linejoin="round" stroke-width=".02"/>
</svg>